<?xml version="1.0" standalone="no"?>
<!DOCTYPE svg PUBLIC "-//W3C//DTD SVG 20010904//EN"
 "http://www.w3.org/TR/2001/REC-SVG-20010904/DTD/svg10.dtd">
<svg version="1.0" xmlns="http://www.w3.org/2000/svg"
 width="500.000000pt" height="500.000000pt" viewBox="0 0 500.000000 500.000000"
 preserveAspectRatio="xMidYMid meet">
<metadata>
Created by potrace 1.14, written by Peter Selinger 2001-2017
</metadata>
<g transform="translate(0.000000,500.000000) scale(0.100000,-0.100000)"
fill="#000000" stroke="none">
<path d="M0 2500 l0 -2500 2500 0 2500 0 0 2500 0 2500 -2500 0 -2500 0 0
-2500z m3326 2280 c99 -6 202 -15 231 -21 l52 -10 7 -67 c17 -151 5 -376 -21
-386 -22 -8 -196 -24 -385 -36 -264 -16 -354 -40 -386 -101 -42 -83 -47 -140
-51 -708 -6 -697 6 -863 65 -886 32 -12 118 -26 250 -40 73 -8 155 -21 183
-29 118 -35 239 -127 297 -225 64 -109 87 -268 80 -554 -4 -161 -8 -189 -28
-242 -30 -77 -30 -135 1 -210 23 -58 24 -67 23 -310 0 -281 -7 -335 -59 -443
-63 -133 -185 -229 -342 -270 -62 -15 -139 -17 -833 -17 -751 0 -947 7 -1000
35 -47 25 -60 271 -60 1125 0 683 8 939 32 1041 12 52 13 53 58 63 46 10 176
22 452 41 146 10 237 24 270 41 61 32 71 179 65 893 -5 575 -7 611 -50 693
-33 63 -121 86 -387 103 -191 12 -363 28 -386 37 -8 3 -14 10 -14 17 -1 6 -5
56 -10 111 -7 85 2 310 14 322 9 9 129 24 252 32 203 12 1471 13 1680 1z"/>
<path d="M2297 1919 c-88 -7 -102 -11 -122 -34 -13 -14 -29 -25 -35 -25 -5 0
-10 -16 -10 -35 0 -45 32 -74 103 -94 39 -12 105 -15 272 -15 121 1 231 3 245
6 52 10 100 33 106 50 3 10 10 18 15 18 22 0 7 53 -24 84 -30 30 -42 34 -123
44 -100 13 -277 14 -427 1z"/>
<path d="M2260 1030 c-79 -12 -131 -45 -150 -95 -21 -56 22 -96 129 -120 100
-23 510 -17 588 9 126 41 96 165 -48 202 -53 14 -441 17 -519 4z"/>
</g>
</svg>
